<?xml version="1.0" encoding="UTF-8"?>
<svg xmlns="http://www.w3.org/2000/svg" viewBox="0 0 400 520">
  <defs>
    <linearGradient id="bgdog" x1="0" y1="0" x2="1" y2="1">
      <stop offset="0" stop-color="#ffe8c8"/>
      <stop offset="1" stop-color="#f0b080"/>
    </linearGradient>
    <radialGradient id="gldog" cx="50%" cy="40%" r="55%">
      <stop offset="0" stop-color="#fff" stop-opacity="0.45"/>
      <stop offset="1" stop-color="#fff" stop-opacity="0"/>
    </radialGradient>
  </defs>
  <rect width="400" height="520" rx="36" fill="url(#bgdog)"/>
  <rect width="400" height="520" rx="36" fill="url(#gldog)"/>
  <circle cx="25.2" cy="394.8" r="4.7" fill="#fff" opacity="0.47"/><circle cx="223.8" cy="31.6" r="4.8" fill="#fff" opacity="0.61"/><circle cx="168.2" cy="173.6" r="3.9" fill="#fff" opacity="0.86"/><circle cx="314.0" cy="326.9" r="3.4" fill="#fff" opacity="0.68"/><circle cx="209.5" cy="331.3" r="4.6" fill="#fff" opacity="0.81"/><circle cx="39.2" cy="178.3" r="3.7" fill="#fff" opacity="0.45"/><circle cx="34.3" cy="138.9" r="4.1" fill="#fff" opacity="0.54"/><circle cx="227.2" cy="475.8" r="3.4" fill="#fff" opacity="0.64"/><circle cx="189.5" cy="117.5" r="3.4" fill="#fff" opacity="0.46"/><circle cx="222.0" cy="169.1" r="4.0" fill="#fff" opacity="0.76"/><circle cx="171.0" cy="452.6" r="4.5" fill="#fff" opacity="0.57"/><circle cx="80.0" cy="481.4" r="3.4" fill="#fff" opacity="0.84"/>
  <ellipse cx="200" cy="470" rx="110" ry="18" fill="rgba(40,24,16,.16)"/>
  
    <path d="M300 340 q 50 -20 30 40" fill="none" stroke="#e8b48a" stroke-width="14" stroke-linecap="round"/>
    <ellipse cx="128" cy="240" rx="22" ry="40" fill="#e8b48a" transform="rotate(-18 128 240)"/><ellipse cx="272" cy="240" rx="22" ry="40" fill="#e8b48a" transform="rotate(18 272 240)"/>
    <ellipse cx="200" cy="320" rx="100" ry="90" fill="#e8b48a"/>
    <ellipse cx="200" cy="336" rx="62" ry="58" fill="#fff6ea"/>
    
    
    <ellipse cx="200" cy="300" rx="26" ry="16" fill="#fff6ea" stroke="#e8b48a" stroke-width="4"/>
    <circle cx="190" cy="300" r="4" fill="#5a3a32"/><circle cx="210" cy="300" r="4" fill="#5a3a32"/>
    
    <ellipse cx="178" cy="250" rx="7" ry="8" fill="#2c241c"/>
    <ellipse cx="222" cy="250" rx="7" ry="8" fill="#2c241c"/>
    <circle cx="180" cy="248" r="2.4" fill="#fff"/>
    <circle cx="224" cy="248" r="2.4" fill="#fff"/>
  
    
    <ellipse cx="160" cy="274" rx="8" ry="4.5" fill="#ff9eb5" opacity=".75"/>
    <ellipse cx="240" cy="274" rx="8" ry="4.5" fill="#ff9eb5" opacity=".75"/>
  
    <path d="M188 268 q 12 12 24 0" fill="none" stroke="#c25858" stroke-width="3.5" stroke-linecap="round"/>
  
</svg>