<?xml version="1.0" encoding="UTF-8"?>
<svg xmlns="http://www.w3.org/2000/svg" viewBox="0 0 400 520">
  <defs>
    <linearGradient id="bggoat" x1="0" y1="0" x2="1" y2="1">
      <stop offset="0" stop-color="#f4f7ff"/>
      <stop offset="1" stop-color="#d5def0"/>
    </linearGradient>
    <radialGradient id="glgoat" cx="50%" cy="40%" r="55%">
      <stop offset="0" stop-color="#fff" stop-opacity="0.45"/>
      <stop offset="1" stop-color="#fff" stop-opacity="0"/>
    </radialGradient>
  </defs>
  <rect width="400" height="520" rx="36" fill="url(#bggoat)"/>
  <rect width="400" height="520" rx="36" fill="url(#glgoat)"/>
  <circle cx="25.4" cy="356.8" r="4.7" fill="#fff" opacity="0.83"/><circle cx="214.8" cy="432.6" r="5.3" fill="#fff" opacity="0.36"/><circle cx="368.2" cy="202.4" r="5.0" fill="#fff" opacity="0.51"/><circle cx="100.5" cy="118.1" r="5.0" fill="#fff" opacity="0.59"/><circle cx="280.5" cy="24.2" r="5.7" fill="#fff" opacity="0.82"/><circle cx="316.2" cy="133.6" r="5.7" fill="#fff" opacity="0.38"/><circle cx="61.6" cy="473.5" r="4.6" fill="#fff" opacity="0.78"/><circle cx="128.6" cy="266.0" r="3.3" fill="#fff" opacity="0.80"/>
  <ellipse cx="200" cy="470" rx="110" ry="18" fill="rgba(40,24,16,.16)"/>
  
    
    <ellipse cx="128" cy="240" rx="22" ry="40" fill="#f7f7f7" transform="rotate(-18 128 240)"/><ellipse cx="272" cy="240" rx="22" ry="40" fill="#f7f7f7" transform="rotate(18 272 240)"/>
    <ellipse cx="200" cy="320" rx="100" ry="90" fill="#f7f7f7"/>
    <ellipse cx="200" cy="336" rx="62" ry="58" fill="#fff"/>
    <circle cx="160" cy="280" r="10" fill="#fff" opacity=".8"/><circle cx="230" cy="300" r="12" fill="#fff" opacity=".75"/><circle cx="180" cy="330" r="8" fill="#fff" opacity=".7"/>
    
    <ellipse cx="200" cy="300" rx="22" ry="12" fill="#fff" stroke="#f7f7f7" stroke-width="4"/>
    <circle cx="190" cy="300" r="4" fill="#5a3a32"/><circle cx="210" cy="300" r="4" fill="#5a3a32"/>
    
    <ellipse cx="178" cy="250" rx="7" ry="8" fill="#2c241c"/>
    <ellipse cx="222" cy="250" rx="7" ry="8" fill="#2c241c"/>
    <circle cx="180" cy="248" r="2.4" fill="#fff"/>
    <circle cx="224" cy="248" r="2.4" fill="#fff"/>
  
    
    <ellipse cx="160" cy="274" rx="8" ry="4.5" fill="#ff9eb5" opacity=".75"/>
    <ellipse cx="240" cy="274" rx="8" ry="4.5" fill="#ff9eb5" opacity=".75"/>
  
    <path d="M188 268 q 12 12 24 0" fill="none" stroke="#c25858" stroke-width="3.5" stroke-linecap="round"/>
  
</svg>