<?xml version="1.0" encoding="UTF-8"?>
<svg xmlns="http://www.w3.org/2000/svg" viewBox="0 0 400 520">
  <defs>
    <linearGradient id="bgmonkey" x1="0" y1="0" x2="1" y2="1">
      <stop offset="0" stop-color="#ffe7c2"/>
      <stop offset="1" stop-color="#f0b45a"/>
    </linearGradient>
    <radialGradient id="glmonkey" cx="50%" cy="40%" r="55%">
      <stop offset="0" stop-color="#fff" stop-opacity="0.45"/>
      <stop offset="1" stop-color="#fff" stop-opacity="0"/>
    </radialGradient>
  </defs>
  <rect width="400" height="520" rx="36" fill="url(#bgmonkey)"/>
  <rect width="400" height="520" rx="36" fill="url(#glmonkey)"/>
  <circle cx="26.0" cy="55.2" r="4.2" fill="#fff" opacity="0.73"/><circle cx="236.2" cy="368.7" r="3.6" fill="#fff" opacity="0.36"/><circle cx="53.9" cy="171.6" r="2.3" fill="#fff" opacity="0.39"/><circle cx="247.5" cy="355.3" r="5.6" fill="#fff" opacity="0.75"/><circle cx="316.7" cy="444.2" r="2.9" fill="#fff" opacity="0.51"/><circle cx="211.2" cy="108.2" r="5.3" fill="#fff" opacity="0.87"/><circle cx="116.9" cy="297.0" r="3.1" fill="#fff" opacity="0.70"/><circle cx="246.9" cy="27.6" r="3.1" fill="#fff" opacity="0.53"/><circle cx="321.0" cy="29.2" r="4.2" fill="#fff" opacity="0.74"/><circle cx="256.5" cy="223.3" r="5.5" fill="#fff" opacity="0.38"/><circle cx="131.7" cy="416.0" r="5.7" fill="#fff" opacity="0.70"/><circle cx="288.4" cy="82.6" r="2.6" fill="#fff" opacity="0.53"/>
  <ellipse cx="200" cy="470" rx="110" ry="18" fill="rgba(40,24,16,.16)"/>
  
    <path d="M300 340 q 50 -20 30 40" fill="none" stroke="#e0a050" stroke-width="14" stroke-linecap="round"/>
    <circle cx="132" cy="230" r="26" fill="#e0a050" stroke="#c48a2a" stroke-width="4"/><circle cx="268" cy="230" r="26" fill="#e0a050" stroke="#c48a2a" stroke-width="4"/>
    <ellipse cx="200" cy="320" rx="100" ry="90" fill="#e0a050"/>
    <ellipse cx="200" cy="336" rx="62" ry="58" fill="#ffe7c2"/>
    
    
    <ellipse cx="200" cy="300" rx="22" ry="12" fill="#ffe7c2" stroke="#e0a050" stroke-width="4"/>
    <circle cx="190" cy="300" r="4" fill="#5a3a32"/><circle cx="210" cy="300" r="4" fill="#5a3a32"/>
    
    <ellipse cx="178" cy="250" rx="7" ry="8" fill="#2c241c"/>
    <ellipse cx="222" cy="250" rx="7" ry="8" fill="#2c241c"/>
    <circle cx="180" cy="248" r="2.4" fill="#fff"/>
    <circle cx="224" cy="248" r="2.4" fill="#fff"/>
  
    
    <ellipse cx="160" cy="274" rx="8" ry="4.5" fill="#ff9eb5" opacity=".75"/>
    <ellipse cx="240" cy="274" rx="8" ry="4.5" fill="#ff9eb5" opacity=".75"/>
  
    <path d="M188 268 q 12 12 24 0" fill="none" stroke="#c25858" stroke-width="3.5" stroke-linecap="round"/>
  
</svg>