<?xml version="1.0" encoding="UTF-8"?>
<svg xmlns="http://www.w3.org/2000/svg" viewBox="0 0 400 520">
  <defs>
    <linearGradient id="bgrooster" x1="0" y1="0" x2="1" y2="1">
      <stop offset="0" stop-color="#fff6d0"/>
      <stop offset="1" stop-color="#ffd56a"/>
    </linearGradient>
    <radialGradient id="glrooster" cx="50%" cy="40%" r="55%">
      <stop offset="0" stop-color="#fff" stop-opacity="0.45"/>
      <stop offset="1" stop-color="#fff" stop-opacity="0"/>
    </radialGradient>
  </defs>
  <rect width="400" height="520" rx="36" fill="url(#bgrooster)"/>
  <rect width="400" height="520" rx="36" fill="url(#glrooster)"/>
  <circle cx="26.2" cy="487.2" r="4.2" fill="#fff" opacity="0.53"/><circle cx="227.2" cy="299.7" r="4.1" fill="#fff" opacity="0.66"/><circle cx="253.9" cy="200.3" r="3.4" fill="#fff" opacity="0.60"/><circle cx="34.0" cy="146.5" r="3.2" fill="#fff" opacity="0.66"/><circle cx="35.7" cy="137.0" r="4.0" fill="#fff" opacity="0.51"/><circle cx="136.1" cy="63.5" r="3.3" fill="#fff" opacity="0.80"/><circle cx="144.2" cy="161.5" r="3.7" fill="#fff" opacity="0.39"/><circle cx="148.3" cy="287.8" r="2.9" fill="#fff" opacity="0.69"/>
  <ellipse cx="200" cy="470" rx="110" ry="18" fill="rgba(40,24,16,.16)"/>
  
    <ellipse cx="150" cy="320" rx="70" ry="36" fill="#ff8a3d" transform="rotate(-16 150 320)"/>
    <ellipse cx="250" cy="320" rx="70" ry="36" fill="#ff8a3d" transform="rotate(16 250 320)"/>
    <ellipse cx="200" cy="330" rx="78" ry="70" fill="#fff"/>
    <circle cx="200" cy="250" r="48" fill="#fff"/>
    <path d="M180 214 l20 -40 20 40 z" fill="#ff4d6d"/>
    
    <ellipse cx="186" cy="250" rx="7" ry="8" fill="#2c241c"/>
    <ellipse cx="214" cy="250" rx="7" ry="8" fill="#2c241c"/>
    <circle cx="188" cy="248" r="2.4" fill="#fff"/>
    <circle cx="216" cy="248" r="2.4" fill="#fff"/>
  
    <path d="M214 262 l28 6 l-28 8 z" fill="#ffb703"/>
    
    <ellipse cx="188" cy="266" rx="8" ry="4.5" fill="#ff9eb5" opacity=".75"/>
    <ellipse cx="188" cy="266" rx="8" ry="4.5" fill="#ff9eb5" opacity=".75"/>
  
  
</svg>