<?xml version="1.0" encoding="UTF-8"?>
<svg xmlns="http://www.w3.org/2000/svg" viewBox="0 0 400 520">
  <defs>
    <linearGradient id="bgleafarcher" x1="0" y1="0" x2="1" y2="1">
      <stop offset="0" stop-color="#d9ffd0"/>
      <stop offset="1" stop-color="#7dcea0"/>
    </linearGradient>
    <radialGradient id="glleafarcher" cx="50%" cy="40%" r="55%">
      <stop offset="0" stop-color="#fff" stop-opacity="0.45"/>
      <stop offset="1" stop-color="#fff" stop-opacity="0"/>
    </radialGradient>
  </defs>
  <rect width="400" height="520" rx="36" fill="url(#bgleafarcher)"/>
  <rect width="400" height="520" rx="36" fill="url(#glleafarcher)"/>
  <circle cx="27.0" cy="147.7" r="3.8" fill="#fff" opacity="0.79"/><circle cx="239.6" cy="166.7" r="2.8" fill="#fff" opacity="0.41"/><circle cx="139.6" cy="198.3" r="5.8" fill="#fff" opacity="0.68"/><circle cx="319.4" cy="174.9" r="5.4" fill="#fff" opacity="0.74"/><circle cx="142.9" cy="249.9" r="2.3" fill="#fff" opacity="0.76"/><circle cx="308.1" cy="463.4" r="4.9" fill="#fff" opacity="0.66"/><circle cx="226.7" cy="319.6" r="2.7" fill="#fff" opacity="0.55"/><circle cx="167.9" cy="309.7" r="2.5" fill="#fff" opacity="0.58"/>
  <ellipse cx="200" cy="470" rx="110" ry="18" fill="rgba(40,24,16,.16)"/>
  
    <path d="M150 250 q -30 80 10 150 q 40 -40 40 -10 q 0 -70 20 -140 z" fill="#1d6b45"/>
    <path d="M300 250 q 40 40 0 90" fill="none" stroke="#8a5a2a" stroke-width="6" stroke-linecap="round"/><path d="M300 250 l0 90" stroke="#f4e2b0" stroke-width="2"/>
    <path d="M168 360 q 6 48 18 52 q 8 2 14 -36" fill="#1d6b45"/>
    <path d="M214 372 q 10 40 24 44 q 8 0 8 -40" fill="#1d6b45"/>
    <rect x="156" y="248" width="88" height="120" rx="36" fill="#2eae6a"/>
    <ellipse cx="156" cy="300" rx="18" ry="28" fill="#2eae6a"/>
    <ellipse cx="246" cy="300" rx="18" ry="28" fill="#2eae6a"/>
    <circle cx="200" cy="214" r="52" fill="#ffd2ad"/>
    
    <path d="M150 200 q 50 -90 100 0 q -10 30 -50 26 q -40 4 -50 -26 z" fill="#2eae6a"/>
    
    <ellipse cx="184" cy="214" rx="7" ry="8" fill="#2c241c"/>
    <ellipse cx="216" cy="214" rx="7" ry="8" fill="#2c241c"/>
    <circle cx="186" cy="212" r="2.4" fill="#fff"/>
    <circle cx="218" cy="212" r="2.4" fill="#fff"/>
  
    
    <ellipse cx="170" cy="230" rx="8" ry="4.5" fill="#ff9eb5" opacity=".75"/>
    <ellipse cx="230" cy="230" rx="8" ry="4.5" fill="#ff9eb5" opacity=".75"/>
  
    <path d="M186 232 q 14 14 28 0" fill="none" stroke="#c25858" stroke-width="3.5" stroke-linecap="round"/>
  
</svg>