<?xml version="1.0" encoding="UTF-8"?>
<svg xmlns="http://www.w3.org/2000/svg" viewBox="0 0 400 520">
  <defs>
    <linearGradient id="bgsunhealer" x1="0" y1="0" x2="1" y2="1">
      <stop offset="0" stop-color="#fff4c8"/>
      <stop offset="1" stop-color="#ffd56a"/>
    </linearGradient>
    <radialGradient id="glsunhealer" cx="50%" cy="40%" r="55%">
      <stop offset="0" stop-color="#fff" stop-opacity="0.45"/>
      <stop offset="1" stop-color="#fff" stop-opacity="0"/>
    </radialGradient>
  </defs>
  <rect width="400" height="520" rx="36" fill="url(#bgsunhealer)"/>
  <rect width="400" height="520" rx="36" fill="url(#glsunhealer)"/>
  <circle cx="26.8" cy="185.6" r="3.8" fill="#fff" opacity="0.44"/><circle cx="248.6" cy="235.7" r="2.4" fill="#fff" opacity="0.66"/><circle cx="291.5" cy="169.5" r="4.7" fill="#fff" opacity="0.47"/><circle cx="180.9" cy="383.7" r="3.8" fill="#fff" opacity="0.83"/><circle cx="71.9" cy="87.1" r="5.2" fill="#fff" opacity="0.76"/><circle cx="31.1" cy="38.1" r="2.9" fill="#fff" opacity="0.73"/><circle cx="199.5" cy="455.0" r="2.1" fill="#fff" opacity="0.86"/><circle cx="266.5" cy="49.5" r="2.7" fill="#fff" opacity="0.42"/><circle cx="100.6" cy="410.9" r="5.0" fill="#fff" opacity="0.48"/><circle cx="290.9" cy="277.6" r="3.1" fill="#fff" opacity="0.55"/><circle cx="92.4" cy="379.4" r="2.9" fill="#fff" opacity="0.82"/><circle cx="144.7" cy="153.9" r="5.8" fill="#fff" opacity="0.78"/>
  <ellipse cx="200" cy="470" rx="110" ry="18" fill="rgba(40,24,16,.16)"/>
  
    
    <rect x="292" y="230" width="8" height="150" rx="4" fill="#c48a48"/><circle cx="296" cy="220" r="16" fill="#ffd24a"/><circle cx="296" cy="220" r="8" fill="#fff6c8"/>
    <path d="M168 360 q 6 48 18 52 q 8 2 14 -36" fill="#e07a00"/>
    <path d="M214 372 q 10 40 24 44 q 8 0 8 -40" fill="#e07a00"/>
    <rect x="156" y="248" width="88" height="120" rx="36" fill="#ffb703"/>
    <ellipse cx="156" cy="300" rx="18" ry="28" fill="#ffb703"/>
    <ellipse cx="246" cy="300" rx="18" ry="28" fill="#ffb703"/>
    <circle cx="200" cy="214" r="52" fill="#ffd8b8"/>
    <path d="M158 210 q 4 -60 42 -68 q 46 -8 52 62 q -8 -28 -46 -24 q -40 -2 -48 30 z" fill="#f6e27a"/>
    <circle cx="200" cy="162" r="16" fill="#f6e27a"/><circle cx="176" cy="176" r="12" fill="#f6e27a"/>
    
    <ellipse cx="184" cy="214" rx="7" ry="8" fill="#2c241c"/>
    <ellipse cx="216" cy="214" rx="7" ry="8" fill="#2c241c"/>
    <circle cx="186" cy="212" r="2.4" fill="#fff"/>
    <circle cx="218" cy="212" r="2.4" fill="#fff"/>
  
    
    <ellipse cx="170" cy="230" rx="8" ry="4.5" fill="#ff9eb5" opacity=".75"/>
    <ellipse cx="230" cy="230" rx="8" ry="4.5" fill="#ff9eb5" opacity=".75"/>
  
    <path d="M186 232 q 14 14 28 0" fill="none" stroke="#c25858" stroke-width="3.5" stroke-linecap="round"/>
  
</svg>