<?xml version="1.0" encoding="UTF-8"?>
<svg xmlns="http://www.w3.org/2000/svg" viewBox="0 0 400 520">
  <defs>
    <linearGradient id="bgbajie" x1="0" y1="0" x2="1" y2="1">
      <stop offset="0" stop-color="#ffd0e0"/>
      <stop offset="1" stop-color="#ff8fb1"/>
    </linearGradient>
    <radialGradient id="glbajie" cx="50%" cy="40%" r="55%">
      <stop offset="0" stop-color="#fff" stop-opacity="0.45"/>
      <stop offset="1" stop-color="#fff" stop-opacity="0"/>
    </radialGradient>
  </defs>
  <rect width="400" height="520" rx="36" fill="url(#bgbajie)"/>
  <rect width="400" height="520" rx="36" fill="url(#glbajie)"/>
  <circle cx="26.0" cy="290.6" r="2.8" fill="#fff" opacity="0.89"/><circle cx="193.0" cy="293.4" r="4.0" fill="#fff" opacity="0.41"/><circle cx="86.7" cy="284.8" r="5.2" fill="#fff" opacity="0.46"/><circle cx="322.0" cy="46.6" r="5.5" fill="#fff" opacity="0.72"/><circle cx="52.1" cy="375.5" r="5.8" fill="#fff" opacity="0.36"/><circle cx="235.0" cy="85.3" r="4.5" fill="#fff" opacity="0.49"/><circle cx="89.7" cy="291.5" r="4.1" fill="#fff" opacity="0.47"/><circle cx="280.7" cy="346.0" r="5.9" fill="#fff" opacity="0.81"/><circle cx="325.8" cy="75.3" r="4.3" fill="#fff" opacity="0.61"/><circle cx="249.4" cy="48.6" r="2.2" fill="#fff" opacity="0.41"/><circle cx="239.5" cy="101.8" r="2.8" fill="#fff" opacity="0.53"/><circle cx="155.0" cy="373.5" r="2.6" fill="#fff" opacity="0.64"/><circle cx="267.8" cy="162.4" r="4.8" fill="#fff" opacity="0.59"/><circle cx="111.1" cy="306.8" r="2.8" fill="#fff" opacity="0.41"/><circle cx="151.7" cy="197.4" r="5.9" fill="#fff" opacity="0.44"/><circle cx="193.0" cy="75.9" r="2.5" fill="#fff" opacity="0.84"/><circle cx="73.9" cy="406.2" r="3.9" fill="#fff" opacity="0.47"/><circle cx="41.9" cy="146.1" r="5.1" fill="#fff" opacity="0.60"/>
  <ellipse cx="200" cy="470" rx="110" ry="18" fill="rgba(40,24,16,.16)"/>
  
    
    <ellipse cx="140" cy="190" rx="26" ry="34" fill="#f2a3b5"/><ellipse cx="260" cy="190" rx="26" ry="34" fill="#f2a3b5"/>
    <ellipse cx="200" cy="320" rx="100" ry="90" fill="#f7b4c4"/>
    <ellipse cx="200" cy="336" rx="62" ry="58" fill="#ffe4ec"/>
    
    
    <ellipse cx="200" cy="300" rx="36" ry="26" fill="#ffe4ec" stroke="#f7b4c4" stroke-width="4"/>
    <circle cx="190" cy="300" r="4" fill="#5a3a32"/><circle cx="210" cy="300" r="4" fill="#5a3a32"/>
    
    <ellipse cx="178" cy="250" rx="7" ry="8" fill="#2c241c"/>
    <ellipse cx="222" cy="250" rx="7" ry="8" fill="#2c241c"/>
    <circle cx="180" cy="248" r="2.4" fill="#fff"/>
    <circle cx="224" cy="248" r="2.4" fill="#fff"/>
  
    
    <ellipse cx="160" cy="274" rx="8" ry="4.5" fill="#ff9eb5" opacity=".75"/>
    <ellipse cx="240" cy="274" rx="8" ry="4.5" fill="#ff9eb5" opacity=".75"/>
  
    <path d="M188 268 q 12 12 24 0" fill="none" stroke="#c25858" stroke-width="3.5" stroke-linecap="round"/>
  
</svg>