<?xml version="1.0" encoding="UTF-8"?>
<svg xmlns="http://www.w3.org/2000/svg" viewBox="0 0 400 520">
  <defs>
    <linearGradient id="bgwujing" x1="0" y1="0" x2="1" y2="1">
      <stop offset="0" stop-color="#ffe8c8"/>
      <stop offset="1" stop-color="#e0a060"/>
    </linearGradient>
    <radialGradient id="glwujing" cx="50%" cy="40%" r="55%">
      <stop offset="0" stop-color="#fff" stop-opacity="0.45"/>
      <stop offset="1" stop-color="#fff" stop-opacity="0"/>
    </radialGradient>
  </defs>
  <rect width="400" height="520" rx="36" fill="url(#bgwujing)"/>
  <rect width="400" height="520" rx="36" fill="url(#glwujing)"/>
  <circle cx="26.0" cy="55.2" r="4.2" fill="#fff" opacity="0.73"/><circle cx="236.2" cy="368.7" r="3.6" fill="#fff" opacity="0.36"/><circle cx="53.9" cy="171.6" r="2.3" fill="#fff" opacity="0.39"/><circle cx="247.5" cy="355.3" r="5.6" fill="#fff" opacity="0.75"/><circle cx="316.7" cy="444.2" r="2.9" fill="#fff" opacity="0.51"/><circle cx="211.2" cy="108.2" r="5.3" fill="#fff" opacity="0.87"/><circle cx="116.9" cy="297.0" r="3.1" fill="#fff" opacity="0.70"/><circle cx="246.9" cy="27.6" r="3.1" fill="#fff" opacity="0.53"/><circle cx="321.0" cy="29.2" r="4.2" fill="#fff" opacity="0.74"/><circle cx="256.5" cy="223.3" r="5.5" fill="#fff" opacity="0.38"/><circle cx="131.7" cy="416.0" r="5.7" fill="#fff" opacity="0.70"/><circle cx="288.4" cy="82.6" r="2.6" fill="#fff" opacity="0.53"/>
  <ellipse cx="200" cy="470" rx="110" ry="18" fill="rgba(40,24,16,.16)"/>
  
    
    
    <path d="M168 360 q 6 48 18 52 q 8 2 14 -36" fill="#8a4e22"/>
    <path d="M214 372 q 10 40 24 44 q 8 0 8 -40" fill="#8a4e22"/>
    <rect x="156" y="248" width="88" height="120" rx="36" fill="#c47a3a"/>
    <ellipse cx="156" cy="300" rx="18" ry="28" fill="#c47a3a"/>
    <ellipse cx="246" cy="300" rx="18" ry="28" fill="#c47a3a"/>
    <circle cx="200" cy="214" r="52" fill="#e8b48a"/>
    <path d="M158 210 q 4 -60 42 -68 q 46 -8 52 62 q -8 -28 -46 -24 q -40 -2 -48 30 z" fill="#2a2118"/>
    <ellipse cx="200" cy="176" rx="46" ry="16" fill="#f3e2b0" stroke="#d7b56a" stroke-width="3"/>
    
    <ellipse cx="184" cy="214" rx="7" ry="8" fill="#2c241c"/>
    <ellipse cx="216" cy="214" rx="7" ry="8" fill="#2c241c"/>
    <circle cx="186" cy="212" r="2.4" fill="#fff"/>
    <circle cx="218" cy="212" r="2.4" fill="#fff"/>
  
    
    <ellipse cx="170" cy="230" rx="8" ry="4.5" fill="#ff9eb5" opacity=".75"/>
    <ellipse cx="230" cy="230" rx="8" ry="4.5" fill="#ff9eb5" opacity=".75"/>
  
    <path d="M186 232 q 14 14 28 0" fill="none" stroke="#c25858" stroke-width="3.5" stroke-linecap="round"/>
  
</svg>