<?xml version="1.0" encoding="UTF-8"?>
<svg xmlns="http://www.w3.org/2000/svg" viewBox="0 0 400 520">
  <defs>
    <linearGradient id="bgflamefox" x1="0" y1="0" x2="1" y2="1">
      <stop offset="0" stop-color="#ffd8c2"/>
      <stop offset="1" stop-color="#ff8a4a"/>
    </linearGradient>
    <radialGradient id="glflamefox" cx="50%" cy="40%" r="55%">
      <stop offset="0" stop-color="#fff" stop-opacity="0.45"/>
      <stop offset="1" stop-color="#fff" stop-opacity="0"/>
    </radialGradient>
  </defs>
  <rect width="400" height="520" rx="36" fill="url(#bgflamefox)"/>
  <rect width="400" height="520" rx="36" fill="url(#glflamefox)"/>
  <circle cx="26.8" cy="421.0" r="2.3" fill="#fff" opacity="0.60"/><circle cx="205.5" cy="160.4" r="2.8" fill="#fff" opacity="0.72"/><circle cx="324.4" cy="282.7" r="3.6" fill="#fff" opacity="0.55"/><circle cx="255.4" cy="75.0" r="3.7" fill="#fff" opacity="0.80"/><circle cx="159.2" cy="488.4" r="4.1" fill="#fff" opacity="0.61"/><circle cx="54.9" cy="485.2" r="2.1" fill="#fff" opacity="0.36"/><circle cx="172.3" cy="449.6" r="3.2" fill="#fff" opacity="0.63"/><circle cx="300.3" cy="367.8" r="5.5" fill="#fff" opacity="0.70"/><circle cx="105.3" cy="457.1" r="5.1" fill="#fff" opacity="0.90"/><circle cx="283.8" cy="102.8" r="3.8" fill="#fff" opacity="0.58"/><circle cx="200.2" cy="65.2" r="3.9" fill="#fff" opacity="0.65"/><circle cx="363.4" cy="444.8" r="5.8" fill="#fff" opacity="0.89"/><circle cx="42.1" cy="160.4" r="5.0" fill="#fff" opacity="0.60"/><circle cx="178.8" cy="305.8" r="4.9" fill="#fff" opacity="0.66"/><circle cx="354.7" cy="299.8" r="4.2" fill="#fff" opacity="0.78"/><circle cx="282.4" cy="459.5" r="3.4" fill="#fff" opacity="0.75"/><circle cx="113.6" cy="287.4" r="5.7" fill="#fff" opacity="0.69"/><circle cx="323.3" cy="362.8" r="3.9" fill="#fff" opacity="0.49"/>
  <ellipse cx="200" cy="470" rx="110" ry="18" fill="rgba(40,24,16,.16)"/>
  
    <path d="M300 340 q 50 -20 30 40" fill="none" stroke="#ff9a3c" stroke-width="14" stroke-linecap="round"/>
    <path d="M150 210 l-8 -48 40 28 z" fill="#ff9a3c"/><path d="M250 210 l8 -48 -40 28 z" fill="#ff9a3c"/>
    <ellipse cx="200" cy="320" rx="100" ry="90" fill="#ff9a3c"/>
    <ellipse cx="200" cy="336" rx="62" ry="58" fill="#fff1d6"/>
    
    
    <ellipse cx="200" cy="300" rx="22" ry="12" fill="#fff1d6" stroke="#ff9a3c" stroke-width="4"/>
    <circle cx="190" cy="300" r="4" fill="#5a3a32"/><circle cx="210" cy="300" r="4" fill="#5a3a32"/>
    
    <ellipse cx="178" cy="250" rx="7" ry="8" fill="#2c241c"/>
    <ellipse cx="222" cy="250" rx="7" ry="8" fill="#2c241c"/>
    <circle cx="180" cy="248" r="2.4" fill="#fff"/>
    <circle cx="224" cy="248" r="2.4" fill="#fff"/>
  
    
    <ellipse cx="160" cy="274" rx="8" ry="4.5" fill="#ff9eb5" opacity=".75"/>
    <ellipse cx="240" cy="274" rx="8" ry="4.5" fill="#ff9eb5" opacity=".75"/>
  
    <path d="M188 268 q 12 12 24 0" fill="none" stroke="#c25858" stroke-width="3.5" stroke-linecap="round"/>
  
</svg>